<?xml version="1.0" standalone="no"?>
<!DOCTYPE svg PUBLIC "-//W3C//DTD SVG 20010904//EN"
 "http://www.w3.org/TR/2001/REC-SVG-20010904/DTD/svg10.dtd">
<svg version="1.0" xmlns="http://www.w3.org/2000/svg"
 width="400.000000pt" height="400.000000pt" viewBox="0 0 400.000000 400.000000"
 preserveAspectRatio="xMidYMid meet">
<metadata>
Created by potrace 1.11, written by Peter Selinger 2001-2013
</metadata>
<g transform="translate(0.000000,400.000000) scale(0.100000,-0.100000)"
fill="#000000" stroke="none">
<path d="M1849 3530 c-112 -77 -278 -190 -369 -251 -91 -62 -208 -142 -260
-179 -52 -36 -167 -115 -255 -174 -190 -129 -196 -134 -174 -146 57 -33 60
-39 60 -147 0 -95 2 -103 20 -103 16 0 19 8 20 58 1 31 0 69 -1 85 -1 15 1 27
4 27 3 0 32 -19 65 -42 124 -89 306 -222 311 -228 3 -3 20 -15 38 -28 l32 -23
1 78 c1 120 4 145 28 190 48 94 169 182 321 233 79 27 83 28 240 50 51 7 286
5 320 -3 8 -2 38 -7 65 -11 52 -8 151 -38 195 -57 14 -7 41 -19 60 -28 49 -22
140 -94 173 -135 51 -65 58 -94 57 -253 l0 -122 113 76 c172 116 261 177 267
183 3 3 44 31 93 63 48 33 87 62 87 66 0 4 -34 31 -77 61 -42 30 -81 60 -88
65 -6 6 -18 15 -27 20 -9 6 -179 129 -378 275 -199 146 -398 292 -443 324 -45
33 -130 94 -188 137 l-107 78 -203 -139z"/>
<path d="M1948 2835 c-2 -1 -25 -5 -53 -9 -228 -27 -444 -147 -474 -264 -5
-21 -9 -166 -9 -324 l0 -288 46 41 c43 37 182 114 227 124 11 3 47 11 80 19
33 8 74 18 90 22 64 14 340 13 425 -1 165 -28 312 -87 398 -161 22 -19 43 -34
46 -34 3 0 5 134 5 298 -1 328 -1 325 -68 395 -63 67 -222 142 -342 162 -24 4
-53 9 -64 12 -22 5 -302 13 -307 8z"/>
<path d="M843 2495 c-36 -25 -39 -69 -8 -120 24 -41 55 -60 55 -34 0 6 9 22
20 36 27 34 26 87 -2 113 -26 24 -37 25 -65 5z"/>
<path d="M850 2283 c0 -15 -12 -65 -26 -112 -32 -105 -33 -110 -40 -196 -3
-38 -7 -84 -8 -101 -2 -18 0 -37 4 -44 12 -19 156 -23 174 -5 21 22 12 172
-19 286 -14 52 -30 118 -36 147 -9 40 -16 52 -30 52 -14 0 -19 -7 -19 -27z"/>
<path d="M1915 2065 c-225 -49 -398 -189 -484 -393 -59 -142 -76 -384 -37
-532 55 -207 182 -363 367 -449 116 -55 198 -70 344 -66 225 6 405 86 528 235
53 63 122 211 142 301 17 80 23 244 12 319 -4 25 -7 47 -7 50 2 16 -54 159
-82 212 -43 82 -154 194 -241 243 -118 65 -203 87 -352 90 -79 1 -154 -3 -190
-10z m267 -165 c251 -46 407 -255 408 -548 0 -238 -88 -410 -259 -500 -252
-134 -577 -40 -696 202 -104 210 -70 554 68 698 122 126 297 180 479 148z"/>
<path d="M1970 1836 c-172 -38 -300 -182 -326 -367 -22 -159 9 -317 84 -429
71 -106 170 -157 318 -167 131 -9 232 22 318 98 71 63 137 217 96 224 -8 2
-34 8 -58 13 -37 9 -44 8 -48 -6 -47 -150 -158 -232 -298 -219 -101 10 -173
48 -222 118 -58 84 -81 275 -48 402 20 79 34 105 81 152 55 56 113 78 207 81
124 3 193 -34 242 -133 l29 -58 60 13 c33 7 61 14 62 16 7 6 -36 93 -65 133
-85 115 -260 168 -432 129z"/>
<path d="M1990 1570 c-75 -22 -121 -63 -145 -129 -30 -86 -15 -188 37 -247 41
-47 89 -66 171 -70 106 -4 184 38 218 119 14 34 12 37 -38 43 -35 4 -39 2 -50
-25 -37 -98 -216 -91 -249 9 -16 50 -16 50 61 47 73 -2 73 -2 78 26 4 30 7 29
-87 31 -68 1 -75 9 -50 62 41 87 182 98 240 19 16 -21 24 -24 57 -19 20 4 37
11 37 17 0 25 -46 80 -83 99 -44 22 -151 32 -197 18z"/>
</g>
</svg>
